<svg width="20" height="20" viewBox="0 0 20 20" fill="none" xmlns="http://www.w3.org/2000/svg">
<g clip-path="url(#clip0_1305_55)">
<path fill-rule="evenodd" clip-rule="evenodd" d="M1.82904 0.313814C1.41062 -0.104605 0.732233 -0.104605 0.313814 0.313814C-0.104605 0.732233 -0.104605 1.41062 0.313814 1.82904L8.48477 10L0.313814 18.171C-0.104605 18.5894 -0.104605 19.2678 0.313814 19.6862C0.732233 20.1046 1.41062 20.1046 1.82904 19.6862L10 11.5152L18.171 19.6862C18.5894 20.1046 19.2678 20.1046 19.6862 19.6862C20.1046 19.2678 20.1046 18.5894 19.6862 18.171L11.5152 10L19.6862 1.82904C20.1046 1.41062 20.1046 0.732233 19.6862 0.313814C19.2678 -0.104605 18.5894 -0.104605 18.171 0.313814L10 8.48477L1.82904 0.313814Z" fill="#FAFAFA"/>
</g>
<defs>
<clipPath id="clip0_1305_55">
<rect width="20" height="20" fill="white"/>
</clipPath>
</defs>
</svg>
