<svg width="20" height="20" viewBox="0 0 20 20" fill="none" xmlns="http://www.w3.org/2000/svg">
<g clip-path="url(#clip0_1305_136)">
<path d="M9.63587 19.901L9.62917 19.8971L9.60594 19.8835C9.58615 19.8719 9.55785 19.855 9.52162 19.8331C9.44915 19.7893 9.34486 19.7252 9.21329 19.6413C8.95026 19.4737 8.57762 19.2268 8.13184 18.9058C7.24179 18.2648 6.05253 17.3226 4.8601 16.1184C2.50032 13.7353 0 10.1947 0 5.83342C0 2.57998 2.52677 0 5.57692 0C7.37065 0 8.97674 0.887888 10 2.27959C11.0233 0.887888 12.6294 0 14.4231 0C17.4732 0 20 2.57998 20 5.83342C20 10.1947 17.4997 13.7353 15.1399 16.1184C13.9475 17.3226 12.7582 18.2648 11.8682 18.9058C11.4224 19.2268 11.0497 19.4737 10.7867 19.6413C10.6551 19.7252 10.5509 19.7893 10.4784 19.8331C10.4421 19.855 10.4138 19.8719 10.3941 19.8835L10.3708 19.8971L10.3641 19.901L10.3613 19.9027C10.1357 20.0324 9.8643 20.0324 9.6387 19.9027L9.63587 19.901Z" fill="#FAFAFA"/>
</g>
<defs>
<clipPath id="clip0_1305_136">
<rect width="20" height="20" fill="white"/>
</clipPath>
</defs>
</svg>
