<svg width="12" height="12" viewBox="0 0 12 12" fill="none" xmlns="http://www.w3.org/2000/svg">
<g clip-path="url(#clip0_1305_138)">
<path d="M5.78152 11.9406L5.7775 11.9383L5.76356 11.9301C5.75169 11.9231 5.73471 11.913 5.71297 11.8999C5.66949 11.8736 5.60691 11.8351 5.52797 11.7848C5.37015 11.6842 5.14657 11.5361 4.87911 11.3435C4.34507 10.9589 3.63152 10.3936 2.91606 9.67102C1.50019 8.24115 0 6.11683 0 3.50005C0 1.54799 1.51606 0 3.34615 0C4.42239 0 5.38604 0.532733 6 1.36775C6.61396 0.532733 7.57761 0 8.65385 0C10.4839 0 12 1.54799 12 3.50005C12 6.11683 10.4998 8.24115 9.08394 9.67102C8.36848 10.3936 7.65493 10.9589 7.12089 11.3435C6.85343 11.5361 6.62985 11.6842 6.47203 11.7848C6.39309 11.8351 6.33051 11.8736 6.28703 11.8999C6.26529 11.913 6.24831 11.9231 6.23644 11.9301L6.2225 11.9383L6.21848 11.9406L6.21678 11.9416C6.08142 12.0195 5.91858 12.0195 5.78322 11.9416L5.78152 11.9406Z" fill="#FAFAFA"/>
</g>
<defs>
<clipPath id="clip0_1305_138">
<rect width="12" height="12" fill="white"/>
</clipPath>
</defs>
</svg>
